<?xml version="1.0" standalone="no"?>
<!DOCTYPE svg PUBLIC "-//W3C//DTD SVG 20010904//EN"
 "http://www.w3.org/TR/2001/REC-SVG-20010904/DTD/svg10.dtd">
<svg version="1.0" xmlns="http://www.w3.org/2000/svg"
 width="1180.000000pt" height="1180.000000pt" viewBox="0 0 1180.000000 1180.000000"
 preserveAspectRatio="xMidYMid meet">
<metadata>
Created by potrace 1.11, written by Peter Selinger 2001-2013
</metadata>
<g transform="translate(0.000000,1180.000000) scale(0.100000,-0.100000)"
fill="#000000" stroke="none">
<path d="M11157 8394 c-1 -1 -47 -4 -102 -8 -55 -3 -111 -8 -125 -10 -27 -5
-84 -14 -140 -22 -19 -3 -46 -7 -60 -10 -14 -2 -38 -7 -54 -10 -59 -10 -333
-84 -421 -112 -49 -17 -155 -55 -235 -85 -80 -30 -190 -72 -245 -92 -419 -155
-646 -272 -847 -436 -76 -63 -188 -178 -231 -236 -17 -24 -32 -42 -33 -40 -2
1 8 34 22 72 30 81 32 91 40 166 6 52 5 57 -21 77 -37 29 -84 28 -126 -2 -86
-62 -218 -140 -374 -220 -163 -84 -331 -187 -386 -237 -131 -119 -177 -155
-187 -145 -20 21 3 87 62 181 54 84 95 170 100 209 4 30 -1 41 -25 65 -27 27
-41 33 -107 46 -12 2 -35 13 -50 23 -108 76 -302 47 -570 -84 -193 -95 -538
-311 -746 -467 -66 -49 -78 -55 -72 -35 29 103 36 141 36 203 0 111 -34 204
-95 258 -84 77 -280 106 -455 68 -231 -51 -551 -210 -753 -375 -49 -40 -57
-43 -52 -24 26 105 41 237 40 348 -2 177 -4 212 -13 207 -4 -3 -61 -8 -127
-12 -144 -9 -196 -13 -211 -14 -20 -2 -122 -112 -173 -186 -27 -38 -66 -101
-86 -140 -60 -112 -351 -421 -473 -504 -78 -52 -123 -74 -132 -64 -4 4 -15 33
-25 63 -23 72 -84 195 -139 279 l-44 68 53 56 c30 31 71 78 92 104 21 27 40
50 43 53 30 28 100 136 100 154 0 66 -127 41 -327 -64 -65 -34 -152 -75 -193
-91 -79 -30 -154 -73 -189 -108 -20 -20 -97 -117 -235 -295 -100 -129 -166
-177 -166 -122 0 28 55 246 69 273 5 10 15 32 22 48 7 17 38 68 68 114 70 106
72 138 18 229 -38 61 -57 79 -100 88 -146 34 -614 -114 -1057 -335 -342 -170
-626 -357 -976 -642 -306 -249 -538 -495 -644 -684 -85 -151 -113 -330 -63
-401 32 -45 100 -68 203 -67 113 0 227 38 460 154 148 74 228 119 459 259 13
8 60 39 103 68 44 28 83 52 88 52 5 0 10 3 12 8 3 8 155 112 163 112 7 0 -83
-170 -147 -275 -138 -229 -147 -337 -33 -381 147 -56 342 21 705 280 47 33 87
63 90 66 3 3 28 23 55 45 209 167 475 418 671 635 119 131 138 150 143 144 3
-3 13 -47 23 -97 22 -127 18 -294 -10 -365 -24 -61 -90 -154 -128 -179 -32
-21 -136 -24 -219 -7 -87 19 -126 6 -196 -66 -31 -32 -65 -73 -75 -90 -12 -20
-63 -61 -131 -107 -121 -80 -145 -112 -107 -140 21 -15 179 -17 256 -3 24 5
59 11 79 14 123 19 341 115 482 212 105 72 535 403 642 493 33 28 92 75 130
104 87 67 179 165 307 330 55 71 102 127 104 125 2 -2 -21 -86 -51 -187 -91
-303 -178 -500 -310 -701 -34 -52 -95 -149 -135 -215 -112 -184 -183 -288
-297 -433 -159 -202 -238 -326 -279 -437 -14 -39 -16 -51 -19 -118 -8 -149 62
-247 129 -180 24 23 76 120 76 141 0 4 20 9 45 11 24 1 69 10 100 21 144 50
236 156 431 497 53 93 114 197 137 233 77 122 300 430 381 528 77 93 351 373
446 458 288 254 562 444 735 509 136 52 188 40 202 -47 21 -135 -366 -546
-622 -660 -57 -26 -60 -26 -63 -8 -9 55 -76 49 -183 -15 -42 -25 -103 -51
-142 -61 -76 -18 -138 -59 -174 -113 -18 -27 -23 -48 -23 -101 0 -135 35 -167
175 -157 206 14 456 114 709 283 44 30 81 52 83 50 2 -2 -1 -15 -7 -30 -19
-52 -21 -132 -4 -175 32 -80 137 -146 245 -154 112 -9 339 87 632 267 48 30
87 51 88 48 0 -4 2 -25 4 -48 13 -152 106 -242 253 -245 99 -2 186 48 432 253
69 57 175 141 235 188 61 46 112 87 115 90 11 12 99 80 103 80 9 0 -24 -136
-48 -199 -43 -112 -103 -200 -205 -301 -99 -97 -121 -125 -113 -148 9 -24 57
-39 121 -36 272 12 668 312 1126 854 38 45 161 203 239 306 294 391 703 688
1239 898 124 49 340 116 423 132 23 4 58 12 95 20 229 51 611 64 780 25 78
-17 166 -13 212 10 95 48 212 156 245 225 53 110 -110 172 -465 179 -56 0
-103 0 -105 -1z m-4046 -1245 c55 -86 -134 -326 -488 -621 -367 -305 -598
-416 -669 -319 -82 111 460 642 889 871 149 79 246 104 268 69z m-4947 -31 c7
-13 6 -26 -7 -53 -29 -61 -91 -122 -340 -330 -82 -70 -470 -365 -603 -461
-393 -281 -654 -407 -700 -338 -12 18 -11 27 13 74 33 66 242 281 380 390 10
8 50 40 88 71 216 171 670 465 905 585 163 82 239 101 264 62z"/>
<path d="M4130 5380 l0 -50 264 0 c202 0 265 -3 268 -12 2 -7 4 -102 3 -210
l0 -198 50 0 51 0 0 208 -1 207 268 3 267 2 0 50 0 50 -585 0 -585 0 0 -50z"/>
<path d="M5792 5175 l0 -255 61 0 c208 -1 919 -1 1004 0 l102 0 -1 50 0 50
-531 2 -532 3 -1 153 -1 152 533 0 534 0 -1 50 -2 50 -582 0 -583 0 0 -255z"/>
<path d="M7684 5178 l1 -253 50 0 50 0 1 190 c1 105 2 196 3 203 1 9 104 12
480 12 l478 0 2 -60 2 -60 -291 0 c-159 0 -290 -3 -291 -7 0 -5 -2 -27 -4 -50
-2 -38 0 -43 19 -44 11 0 144 -1 294 -2 l272 0 0 -94 0 -93 50 0 50 0 0 255 0
255 -583 0 -583 0 0 -252z"/>
<path d="M9630 5175 l0 -255 50 0 50 0 0 205 0 205 215 0 215 0 1 -22 c0 -13
0 -80 0 -150 l0 -128 50 0 49 0 1 53 c1 28 1 96 1 149 l0 97 213 1 213 1 4
-23 c2 -13 3 -105 2 -206 l-1 -183 51 3 51 3 0 253 0 252 -582 0 -583 0 0
-255z"/>
<path d="M5972 5158 l3 -51 330 0 c182 1 335 2 341 2 10 1 12 40 5 94 -1 4
-154 7 -342 7 l-340 0 3 -52z"/>
<path d="M9545 4540 l-20 -9 20 0 c11 0 27 4 35 9 13 9 13 10 0 9 -8 0 -24 -4
-35 -9z"/>
<path d="M7643 4511 c-12 -9 -10 -141 2 -141 7 0 9 15 7 34 -4 34 -4 35 39 39
l44 4 -41 1 c-37 2 -41 5 -41 27 0 28 16 35 65 31 18 -2 30 -1 27 3 -8 8 -91
10 -102 2z"/>
<path d="M7889 4509 c-3 -39 -1 -110 4 -122 3 -8 16 -17 29 -20 22 -6 22 -5 3
9 -15 11 -20 28 -21 75 -2 54 -12 95 -15 58z"/>
<path d="M7999 4510 c0 -8 -2 -39 -2 -68 -2 -50 -19 -78 -39 -66 -4 3 -8 0 -8
-6 0 -12 38 -5 54 10 11 10 14 117 4 133 -6 9 -8 8 -9 -3z"/>
<path d="M8167 4513 c-10 -10 -8 -143 2 -143 5 0 7 23 6 50 -2 28 1 52 5 55 4
3 20 -14 35 -36 14 -22 29 -39 31 -36 5 4 -64 117 -71 117 -1 0 -5 -3 -8 -7z"/>
<path d="M8429 4512 c-6 -50 -2 -142 6 -143 32 -5 92 4 103 15 15 14 23 66 15
96 -3 11 -15 22 -27 25 -50 11 -96 14 -97 7z m100 -18 c2 -1 6 -23 8 -46 6
-49 -6 -65 -47 -68 -47 -4 -48 -3 -47 63 l1 64 41 -5 c22 -2 42 -6 44 -8z"/>
<path d="M8710 4440 c-23 -46 -34 -77 -26 -74 8 3 16 14 19 25 8 31 81 27 103
-6 32 -49 26 -16 -12 59 -20 42 -39 76 -40 76 -2 0 -22 -36 -44 -80z m59 -18
c-43 -7 -49 0 -32 36 l16 34 18 -34 c17 -32 17 -33 -2 -36z"/>
<path d="M8983 4505 c-30 -21 -40 -78 -19 -109 21 -33 69 -43 102 -21 14 9 23
19 20 22 -3 4 -14 -1 -24 -10 -25 -22 -48 -21 -72 3 -26 26 -26 81 0 105 16
14 24 15 51 6 42 -15 48 -13 25 4 -25 19 -56 19 -83 0z"/>
<path d="M9254 4508 c-3 -5 0 -7 8 -6 10 2 13 -14 15 -64 1 -58 -1 -66 -15
-61 -9 4 -14 3 -10 -1 9 -10 68 -14 68 -5 0 4 -6 9 -12 12 -8 3 -13 22 -12 53
2 72 3 76 17 68 6 -4 8 -3 4 2 -11 11 -56 13 -63 2z"/>
<path d="M9505 4500 c-13 -15 -19 -35 -19 -62 2 -43 18 -66 52 -73 29 -5 28 3
-2 15 -47 18 -40 121 9 128 53 8 84 -79 43 -120 -26 -26 -17 -34 12 -10 16 13
22 29 23 60 1 50 -16 70 -64 78 -27 5 -38 1 -54 -16z"/>
<path d="M9762 4444 c0 -41 4 -74 9 -74 5 0 9 28 9 63 l0 62 40 -60 c22 -33
45 -60 52 -60 9 0 13 20 13 65 0 36 -4 65 -10 65 -5 0 -8 -24 -6 -52 1 -29 0
-53 -2 -53 -3 0 -21 24 -41 54 -54 81 -64 80 -64 -10z"/>
<path d="M8264 4473 c1 -21 -2 -48 -6 -60 -9 -26 0 -56 13 -47 11 7 12 144 0
144 -4 0 -7 -17 -7 -37z"/>
<path d="M7645 4279 c-36 -10 -73 -42 -84 -72 -5 -12 -9 -61 -10 -109 l-2 -88
45 0 c49 0 57 10 52 68 -2 17 -1 32 3 33 9 1 112 1 138 0 13 -1 33 -18 52 -43
25 -34 31 -52 31 -94 0 -67 30 -164 65 -210 33 -43 101 -94 127 -94 15 0 17 4
9 18 -5 9 -7 55 -4 102 3 60 1 98 -10 127 l-15 43 42 -7 c39 -7 140 -8 288 -2
l67 2 -20 28 c-22 31 -105 75 -161 85 l-38 6 0 64 c0 35 4 64 10 64 37 0 135
-65 216 -142 47 -46 54 -49 95 -46 l44 3 1 138 2 138 -46 -3 -47 -3 -1 -75
c-1 -41 -2 -76 -3 -78 0 -1 -24 16 -53 38 -90 72 -197 120 -265 120 -34 0 -43
-4 -44 -17 0 -10 -1 -55 -1 -100 l0 -83 -67 0 -67 0 0 100 1 100 -160 -1 c-88
0 -174 -5 -190 -10z m253 -79 c-3 -12 -24 -15 -121 -15 -133 0 -156 12 -53 27
11 2 55 3 98 3 65 0 78 -2 76 -15z m0 -103 c4 -22 -11 -22 -31 1 -16 18 -16
19 5 17 13 -1 24 -9 26 -18z"/>
<path d="M8792 4273 c-54 -26 -73 -70 -75 -170 l-2 -88 180 0 c158 0 183 2
207 18 26 18 54 77 60 127 3 25 2 25 -74 26 l-78 0 0 -38 c0 -21 3 -37 8 -37
21 4 35 -2 27 -10 -9 -9 -98 -15 -192 -12 l-43 1 0 43 c0 77 5 80 186 81 l159
2 3 37 3 38 -169 -1 c-129 -1 -176 -5 -200 -17z"/>
<path d="M9385 4279 c-37 -10 -73 -42 -86 -76 -5 -13 -9 -62 -9 -109 l0 -84
215 0 215 0 0 39 0 39 -165 0 c-91 -1 -168 2 -172 6 -15 15 16 19 147 20 l140
0 0 38 0 38 -97 -1 c-176 -1 -190 0 -169 13 11 6 80 11 165 12 l146 2 3 37 3
37 -153 -1 c-84 0 -167 -5 -183 -10z"/>
<path d="M9842 4153 l3 -138 170 0 c164 0 171 1 202 24 25 19 53 64 53 87 0
10 -93 -6 -107 -18 -14 -13 -42 -17 -113 -18 -52 -2 -100 -2 -106 -1 -6 1 -10
33 -9 89 1 48 -1 93 -3 100 -2 7 -22 12 -48 12 l-45 0 3 -137z"/>
<path d="M10858 4269 c-2 -6 -35 -27 -73 -47 -76 -40 -120 -91 -134 -154 -14
-59 0 -67 61 -35 29 15 74 47 100 71 63 57 81 101 69 169 -2 11 -19 8 -23 -4z"/>
<path d="M10545 4170 c-45 -22 -82 -88 -89 -157 -3 -21 -5 -41 -5 -45 -1 -3
-16 -6 -33 -5 -32 2 -33 3 -31 46 2 24 8 50 14 57 9 11 7 14 -7 14 -37 -1
-101 -38 -133 -79 -23 -29 -40 -41 -59 -41 -46 0 -146 -22 -190 -41 -54 -24
-52 -24 -52 11 0 34 10 33 -176 32 -127 -1 -150 -4 -193 -26 -40 -21 -60 -62
-62 -127 -2 -53 -6 -59 -86 -149 -13 -14 -23 -28 -23 -32 0 -11 -41 -22 -85
-22 -29 -1 -41 -5 -43 -18 -3 -15 4 -18 40 -19 64 -1 84 -6 130 -35 101 -64
236 -104 328 -98 53 4 132 32 94 33 -21 1 -166 90 -178 109 -3 6 4 14 16 18
41 13 103 6 179 -19 143 -49 281 -55 367 -17 25 11 43 22 41 24 -10 10 -162
59 -239 78 -47 12 -86 22 -88 24 -2 1 12 22 30 46 19 25 40 59 47 76 7 18 16
32 20 33 3 1 19 2 36 4 16 1 31 7 33 14 2 6 13 16 24 22 19 10 20 9 13 -33
-13 -76 -15 -83 -22 -86 -34 -12 -88 -51 -91 -65 -5 -23 19 -22 67 2 49 25
102 25 109 -1 4 -15 13 -18 46 -17 22 1 45 4 50 7 4 2 43 6 85 7 70 2 117 8
163 21 13 4 16 0 13 -15 -4 -20 0 -20 173 -18 249 3 273 18 279 177 4 107 4
107 -115 104 -45 -1 -80 1 -78 4 2 4 -60 7 -139 6 l-142 -1 8 32 c5 17 7 39 5
50 -16 87 -17 107 -6 120 17 20 3 19 -45 -5z m-610 -296 c-10 -11 -50 -14
-161 -14 -81 0 -145 3 -141 6 13 13 74 19 193 20 103 1 120 -1 109 -12z m480
6 c-7 -12 -45 -14 -45 -2 0 4 11 9 26 10 14 1 23 -2 19 -8z m546 -4 c4 -31 -2
-79 -11 -96 -11 -20 -20 -22 -140 -22 -22 0 -56 1 -75 1 l-35 1 0 49 c0 71 8
75 173 77 57 1 87 -2 88 -10z m-354 -49 c-2 -31 -7 -41 -18 -38 -43 12 -137
31 -159 31 l-25 1 25 13 c14 8 50 17 80 21 30 4 56 8 57 9 1 1 11 2 23 3 18 2
20 -3 17 -40z m-760 -51 c-4 -14 -107 -21 -107 -7 0 13 12 16 65 17 29 0 44
-3 42 -10z m-53 -117 c-17 -16 -38 -22 -100 -26 l-79 -6 25 26 c22 22 34 25
100 26 l74 1 -20 -21z"/>
<path d="M8728 3962 c-14 -3 -18 -13 -18 -43 l0 -39 -37 15 c-95 36 -285 41
-411 11 l-72 -18 -31 26 c-28 24 -69 35 -69 20 0 -4 24 -30 53 -58 41 -39 56
-61 61 -91 19 -106 95 -212 181 -251 63 -30 79 -31 65 -5 -5 11 -12 37 -15 58
-15 101 -26 148 -38 162 -31 36 -28 38 46 39 76 1 103 4 202 27 17 4 38 9 48
12 15 4 18 0 15 -23 -3 -24 -11 -30 -68 -49 -59 -20 -68 -21 -94 -7 -46 23
-85 32 -92 21 -6 -10 13 -39 24 -37 25 5 67 -33 92 -82 79 -156 185 -245 307
-257 l58 -6 -28 33 c-16 18 -41 60 -56 94 -15 34 -44 77 -64 96 l-36 35 59 12
c58 11 102 28 170 63 l35 18 32 -28 32 -29 -36 -27 c-30 -23 -44 -27 -87 -24
-106 5 -119 5 -123 -6 -5 -16 21 -24 92 -31 52 -4 65 -10 100 -42 125 -117
277 -185 385 -173 33 3 69 22 43 22 -6 0 -48 34 -94 76 -45 41 -102 85 -127
98 l-46 23 36 12 c19 6 55 25 81 40 25 16 56 31 68 33 14 2 25 11 28 23 4 23
36 53 71 67 24 10 24 11 5 18 -11 5 -30 9 -42 9 -30 1 -35 12 -35 87 -1 70 -2
73 -59 77 l-36 3 0 -75 c-1 -103 -1 -101 -20 -101 -10 0 -39 -11 -65 -24 l-48
-23 0 108 0 109 -45 0 c-50 0 -47 7 -46 -103 l0 -59 -32 25 c-131 99 -254 153
-319 139z m184 -136 c18 -13 16 -14 -30 -17 -74 -6 -82 -2 -82 36 l0 34 46
-19 c25 -11 55 -26 66 -34z"/>
</g>
</svg>
